<svg xmlns="http://www.w3.org/2000/svg" viewBox="0 0 512 512">
  <defs>
    <linearGradient id="hotelBg" x1="0%" y1="0%" x2="100%" y2="100%">
      <stop offset="0%" stop-color="#0a3019"/>
      <stop offset="100%" stop-color="#03140a"/>
    </linearGradient>
    <linearGradient id="buildingGrad" x1="0%" y1="0%" x2="0%" y2="100%">
      <stop offset="0%" stop-color="#4af2ac"/>
      <stop offset="100%" stop-color="#22c55e"/>
    </linearGradient>
  </defs>

  <!-- Background Squircle / Container -->
  <rect width="512" height="512" rx="135" ry="135" fill="url(#hotelBg)"/>
  <rect x="3.5" y="3.5" width="505" height="505" rx="131.5" ry="131.5" fill="none" stroke="#34d399" stroke-width="7" stroke-opacity="0.35"/>

  <!-- Building Silhouette with Cutout Windows & Door -->
  <path fill="url(#buildingGrad)" fill-rule="evenodd" d="
    M 196 120
    H 316
    V 246
    H 376
    V 396
    H 274
    V 330
    H 238
    V 396
    H 136
    V 186
    H 196
    Z

    M 216 144 H 244 V 172 H 216 Z
    M 268 144 H 296 V 172 H 268 Z

    M 152 206 H 180 V 234 H 152 Z
    M 216 206 H 244 V 234 H 216 Z
    M 268 206 H 296 V 234 H 268 Z

    M 152 268 H 180 V 296 H 152 Z
    M 216 268 H 244 V 296 H 216 Z
    M 268 268 H 296 V 296 H 268 Z
    M 332 268 H 360 V 296 H 332 Z

    M 152 330 H 180 V 358 H 152 Z
    M 332 330 H 360 V 358 H 332 Z
  "/>
</svg>
